<svg width="1034" height="667" viewBox="0 0 1034 667" fill="none" xmlns="http://www.w3.org/2000/svg">
<path d="M124.4 180.267C47.8667 257.2 38.6667 266.933 34.9333 274.667C29.2 286.133 27.3333 297.6 29.2 308.133C32.4 326.533 29.8667 323.6 123.6 417.6L209.867 504L225.333 488.667L240.667 473.333L156.267 388.933C72.9333 305.6 72 304.667 72 299.333C72 294 72.9333 293.067 156.667 209.333L241.333 124.667L226.4 109.733C218.133 101.467 211.067 94.6667 210.533 94.6667C210.133 94.6667 171.333 133.2 124.4 180.267Z" fill="#656CCF"/>
<path d="M814.667 110L799.333 125.333L883.733 209.733C967.067 293.067 968 294 968 299.333C968 304.667 967.067 305.6 883.333 389.333L798.667 474L814 489.333L829.467 504.667L915.2 418.667C992.133 341.467 1001.33 331.733 1005.07 324C1010.8 312.533 1012.67 301.067 1010.8 290.533C1007.6 272.133 1010.13 275.067 916.267 181.067L830 94.5333L814.667 110Z" fill="#656CCF"/>
<path d="M277.333 178V212H349.067H420.667L425.867 215.067C439.467 222.8 438.933 243.2 424.8 249.867C420.8 251.733 412 252 348.8 252H277.333V352V452L369.067 451.867H460.667L515.067 383.2C545.067 345.467 570 314.667 570.533 314.667C571.2 314.667 599.733 345.467 634.133 383.2L696.667 451.867H730.533L764.4 452L761.733 448.933C760.267 447.333 723.6 407.467 680.267 360.267L601.467 274.533L635.733 231.6C682.4 172.933 701.333 149.067 703.733 146.267C705.6 144.133 704 144 671.2 144.133H636.667L542.133 264.133L447.467 384H396.4H345.333V351.333V318.667H378.667H412L426.267 329.2C434.267 335.067 441.067 339.467 441.6 339.2C442.8 338.4 473.333 299.067 473.333 298.267C473.333 296.8 463.2 290.133 458.8 288.533L454 286.933L458 286C475.867 282 487.067 275.867 497.333 264.4C512.933 247.067 519.333 221.733 514 198.8C507.6 171.867 486.8 150.667 461.6 145.467C456.8 144.533 425.467 144 366 144H277.333V178Z" fill="black"/>
</svg>
