<svg width="1034" height="1034" viewBox="0 0 1034 1034" fill="none" xmlns="http://www.w3.org/2000/svg">
<rect width="1033.33" height="1033.33" fill="white"/>
<path d="M121.898 397.733C45.3646 474.665 36.1646 484.399 32.4313 492.132C26.6979 503.598 24.8313 515.065 26.6979 525.598C29.8979 543.998 27.3646 541.065 121.098 635.064L207.365 721.463L222.831 706.13L238.165 690.797L153.765 606.398C70.4313 523.065 69.4979 522.132 69.4979 516.798C69.4979 511.465 70.4313 510.532 154.165 426.799L238.831 342.133L223.898 327.2C215.631 318.933 208.565 312.133 208.031 312.133C207.631 312.133 168.831 350.666 121.898 397.733Z" fill="#656CCF"/>
<path d="M812.165 327.467L796.831 342.8L881.231 427.199C964.565 510.532 965.498 511.465 965.498 516.798C965.498 522.132 964.565 523.065 880.831 606.798L796.165 691.464L811.498 706.797L826.965 722.13L912.698 636.131C989.631 558.931 998.831 549.198 1002.56 541.465C1008.3 529.998 1010.16 518.532 1008.3 507.998C1005.1 489.599 1007.63 492.532 913.765 398.533L827.498 312L812.165 327.467Z" fill="#656CCF"/>
<path d="M274.831 395.466V429.466H346.565H418.165L423.365 432.532C436.965 440.266 436.431 460.665 422.298 467.332C418.298 469.199 409.498 469.465 346.298 469.465H274.831V569.465V669.464L366.565 669.33H458.165L512.565 600.664C542.565 562.931 567.498 532.132 568.031 532.132C568.698 532.132 597.231 562.931 631.631 600.664L694.165 669.33H728.031L761.898 669.464L759.231 666.397C757.765 664.797 721.098 624.931 677.765 577.731L598.965 491.999L633.231 449.066C679.898 390.399 698.831 366.533 701.231 363.733C703.098 361.6 701.498 361.466 668.698 361.6H634.165L539.631 481.599L444.965 601.464H393.898H342.831V568.798V536.132H376.165H409.498L423.765 546.665C431.765 552.531 438.565 556.931 439.098 556.665C440.298 555.865 470.831 516.532 470.831 515.732C470.831 514.265 460.698 507.598 456.298 505.998L451.498 504.398L455.498 503.465C473.365 499.465 484.565 493.332 494.831 481.865C510.431 464.532 516.831 439.199 511.498 416.266C505.098 389.333 484.298 368.133 459.098 362.933C454.298 362 422.965 361.466 363.498 361.466H274.831V395.466Z" fill="black"/>
</svg>
