<svg width="984" height="411" viewBox="0 0 984 411" fill="none" xmlns="http://www.w3.org/2000/svg">
<path d="M96.4 86.2667C19.8667 163.2 10.6667 172.933 6.93334 180.667C1.20001 192.133 -0.666661 203.6 1.20001 214.133C4.40001 232.533 1.86667 229.6 95.6 323.6L181.867 410L197.333 394.667L212.667 379.333L128.267 294.933C44.9333 211.6 44 210.667 44 205.333C44 200 44.9333 199.067 128.667 115.333L213.333 30.6667L198.4 15.7333C190.133 7.46666 183.067 0.666672 182.533 0.666672C182.133 0.666672 143.333 39.2 96.4 86.2667Z" fill="#656CCF"/>
<path d="M786.667 16L771.333 31.3333L855.733 115.733C939.067 199.067 940 200 940 205.333C940 210.667 939.067 211.6 855.333 295.333L770.667 380L786 395.333L801.467 410.667L887.2 324.667C964.133 247.467 973.333 237.733 977.067 230C982.8 218.533 984.667 207.067 982.8 196.533C979.6 178.133 982.133 181.067 888.267 87.0667L802 0.533325L786.667 16Z" fill="#656CCF"/>
<path d="M249.333 84V118H321.067H392.667L397.867 121.067C411.467 128.8 410.933 149.2 396.8 155.867C392.8 157.733 384 158 320.8 158H249.333V258V358L341.067 357.867H432.667L487.067 289.2C517.067 251.467 542 220.667 542.533 220.667C543.2 220.667 571.733 251.467 606.133 289.2L668.667 357.867H702.533L736.4 358L733.733 354.933C732.267 353.333 695.6 313.467 652.267 266.267L573.467 180.533L607.733 137.6C654.4 78.9333 673.333 55.0667 675.733 52.2667C677.6 50.1333 676 50 643.2 50.1333H608.667L514.133 170.133L419.467 290H368.4H317.333V257.333V224.667H350.667H384L398.267 235.2C406.267 241.067 413.067 245.467 413.6 245.2C414.8 244.4 445.333 205.067 445.333 204.267C445.333 202.8 435.2 196.133 430.8 194.533L426 192.933L430 192C447.867 188 459.067 181.867 469.333 170.4C484.933 153.067 491.333 127.733 486 104.8C479.6 77.8667 458.8 56.6667 433.6 51.4667C428.8 50.5333 397.467 50 338 50H249.333V84Z" fill="black"/>
</svg>
